#!OML:ASF G:\JayActor3\Patient Classification 1\Patient 1\Session 6\male.ASF
:FULLY-SPECIFIED
:DEGREES
1539
root 10.077 15.0884 -18.2018 199.483 -52.1926 -186.14
lowerback 35.5795 -0.0780753 3.90714
upperback 19.2779 -3.10842 -0.467307
thorax 3.2282 -2.69727 -1.74859
lowerneck 2.32904 -2.39752 2.18006
upperneck -24.3442 -2.97148 5.90886
head -7.81953 -2.75905 1.8876
rclavicle 7.43455e-014 -4.77083e-014
rhumerus 50.829 -22.0916 -34.7436
rradius 71.7911
rwrist -8.46446
rhand -32.5668 -14.9003
rfingers 7.12502
rthumb -5.79599 -44.801
lclavicle 7.43455e-014 -4.77083e-014
lhumerus -5.25916 -14.7147 68.019
lradius 65.2051
lwrist 30.4024
lhand -18.8519 10.7821
lfingers 7.12502
lthumb 7.44807 40.631
rfemur -51.4653 -7.70362 23.0486
rtibia 68.3763
rfoot -33.3252 -21.4591
rtoes -3.65819
lfemur -56.1541 12.6361 -29.8602
ltibia 54.7807
lfoot -12.8106 11.3377
ltoes -5.21253
1540
root 10.0484 15.0892 -18.2018 199.35 -52.0595 -186.061
lowerback 35.7198 -0.030217 3.83868
upperback 19.2863 -3.08287 -0.503766
thorax 3.19072 -2.69483 -1.75308
lowerneck 2.34442 -2.40218 2.18733
upperneck -24.4179 -2.97557 5.93337
head -7.84684 -2.76995 1.89789
rclavicle 3.29983e-014 -1.39149e-015
rhumerus 50.8277 -22.1356 -34.8294
rradius 71.7596
rwrist -8.4206
rhand -32.7953 -15.0073
rfingers 7.12502
rthumb -6.01659 -44.9018
lclavicle 3.29983e-014 -1.39149e-015
lhumerus -5.23945 -14.8141 67.9603
lradius 65.0865
lwrist 30.2404
lhand -18.7235 10.7758
lfingers 7.12502
lthumb 7.57201 40.6202
rfemur -51.316 -7.6907 22.9947
rtibia 68.4052
rfoot -33.3304 -21.409
rtoes -3.85211
lfemur -56.0914 12.6168 -29.8256
ltibia 54.905
lfoot -12.7425 11.5005
ltoes -5.19674
1541
root 10.0201 15.0911 -18.2026 199.219 -51.9308 -185.975
lowerback 35.8459 0.0226597 3.77871
upperback 19.2978 -3.04908 -0.539132
thorax 3.16198 -2.68725 -1.76409
lowerneck 2.35659 -2.41324 2.20545
upperneck -24.479 -2.9887 5.9499
head -7.8696 -2.7844 1.90385
rclavicle -7.39479e-014 -6.82825e-014
rhumerus 50.8244 -22.1882 -34.9114
rradius 71.7174
rwrist -8.40081
rhand -33.0348 -15.1377
rfingers 7.12502
rthumb -6.24782 -45.0256
lclavicle -7.39479e-014 -6.82825e-014
lhumerus -5.17544 -14.9137 67.8816
lradius 64.9467
lwrist 30.0975
lhand -18.6012 10.7642
lfingers 7.12502
lthumb 7.69006 40.6044
rfemur -51.1629 -7.64064 22.942
rtibia 68.4146
rfoot -33.3373 -21.3921
rtoes -4.03244
lfemur -56.0129 12.622 -29.8004
ltibia 55.0029
lfoot -12.7148 11.6561
ltoes -5.13803
1542
root 9.99174 15.0937 -18.2035 199.114 -51.8147 -185.906
lowerback 35.9475 0.0700002 3.7191
upperback 19.3121 -3.02174 -0.571623
thorax 3.14439 -2.68225 -1.77169
lowerneck 2.36432 -2.42293 2.21587
upperneck -24.5231 -3.0026 5.95466
head -7.88577 -2.7961 1.90652
rclavicle -3.79679e-014 -1.3418e-014
rhumerus 50.844 -22.2359 -34.9973
rradius 71.6677
rwrist -8.40302
rhand -33.2708 -15.3117
rfingers 7.12502
rthumb -6.4756 -45.1927
lclavicle -3.79679e-014 -1.3418e-014
lhumerus -5.07898 -14.9879 67.7998
lradius 64.7867
lwrist 29.9896
lhand -18.5185 10.7519
lfingers 7.12502
lthumb 7.76991 40.5891
rfemur -51.0184 -7.58133 22.878
rtibia 68.4124
rfoot -33.3466 -21.3891
rtoes -4.18582
lfemur -55.9128 12.626 -29.7899
ltibia 55.078
lfoot -12.7386 11.8175
ltoes -5.14966
1543
root 9.96304 15.0968 -18.204 199.019 -51.7128 -185.828
lowerback 36.0201 0.105771 3.67483
upperback 19.3281 -3.00353 -0.59715
thorax 3.13819 -2.68016 -1.77871
lowerneck 2.37217 -2.42915 2.20192
upperneck -24.5525 -3.01472 5.95228
head -7.89655 -2.80286 1.91023
rclavicle -1.33186e-014 4.55714e-014
rhumerus 50.8904 -22.2701 -35.0851
rradius 71.615
rwrist -8.42571
rhand -33.4924 -15.4949
rfingers 7.12502
rthumb -6.68956 -45.3693
lclavicle -1.33186e-014 4.55714e-014
lhumerus -4.96223 -15.0237 67.7239
lradius 64.6097
lwrist 29.9083
lhand -18.4721 10.7451
lfingers 7.12502
lthumb 7.81467 40.5807
rfemur -50.8853 -7.51641 22.8211
rtibia 68.4003
rfoot -33.3632 -21.39
rtoes -4.30085
lfemur -55.7991 12.6219 -29.7717
ltibia 55.1334
lfoot -12.8104 11.9846
ltoes -5.2287
1544
root 9.93487 15.1009 -18.2047 198.92 -51.5602 -185.735
lowerback 36.0841 0.171328 3.5974
upperback 19.3436 -2.95959 -0.6228
thorax 3.13557 -2.66835 -1.77636
lowerneck 2.38224 -2.43415 2.18199
upperneck -24.568 -3.0265 5.94124
head -7.90303 -2.8069 1.91155
rclavicle 6.40087e-014 -1.03617e-013
rhumerus 50.9489 -22.2935 -35.1715
rradius 71.56
rwrist -8.46505
rhand -33.7029 -15.691
rfingers 7.12502
rthumb -6.89281 -45.5588
lclavicle 6.40087e-014 -1.03617e-013
lhumerus -4.82969 -15.0332 67.6497
lradius 64.421
lwrist 29.8554
lhand -18.4747 10.7406
lfingers 7.12502
lthumb 7.81216 40.5763
rfemur -50.7563 -7.39197 22.7572
rtibia 68.3766
rfoot -33.3743 -21.3981
rtoes -4.40752
lfemur -55.6749 12.6766 -29.7609
ltibia 55.1737
lfoot -12.9218 12.1412
ltoes -5.34192
1545
root 9.90715 15.106 -18.2057 198.826 -51.3616 -185.637
lowerback 36.1398 0.264349 3.48687
upperback 19.3578 -2.89237 -0.649675
thorax 3.13525 -2.64783 -1.76508
lowerneck 2.39517 -2.43731 2.15736
upperneck -24.5725 -3.03596 5.92665
head -7.90632 -2.80812 1.91196
rclavicle -2.78299e-015 3.8266e-015
rhumerus 51.0096 -22.3073 -35.253
rradius 71.5088
rwrist -8.51476
rhand -33.8961 -15.8723
rfingers 7.12502
rthumb -7.07926 -45.7339
lclavicle -2.78299e-015 3.8266e-015
lhumerus -4.69078 -15.0207 67.5769
lradius 64.2319
lwrist 29.8266
lhand -18.5206 10.743
lfingers 7.12502
lthumb 7.76787 40.5804
rfemur -50.6346 -7.21598 22.6825
rtibia 68.3447
rfoot -33.3734 -21.4177
rtoes -4.52629
lfemur -55.5537 12.7873 -29.7654
ltibia 55.2054
lfoot -13.0531 12.2793
ltoes -5.4556
1546
root 9.88003 15.1113 -18.2067 198.729 -51.1209 -185.526
lowerback 36.1949 0.383878 3.34953
upperback 19.3691 -2.80098 -0.676575
thorax 3.13314 -2.61784 -1.74674
lowerneck 2.40226 -2.44108 2.13414
upperneck -24.5638 -3.04586 5.9128
head -7.90406 -2.80885 1.91179
rclavicle 3.93594e-014 3.3694e-014
rhumerus 51.0647 -22.3157 -35.3174
rradius 71.4612
rwrist -8.57058
rhand -34.0793 -16.0361
rfingers 7.12502
rthumb -7.25615 -45.8917
lclavicle 3.93594e-014 3.3694e-014
lhumerus -4.54863 -14.989 67.5066
lradius 64.0524
lwrist 29.8164
lhand -18.6079 10.7527
lfingers 7.12502
lthumb 7.6836 40.5932
rfemur -50.5232 -6.99182 22.6034
rtibia 68.31
rfoot -33.3563 -21.4498
rtoes -4.67677
lfemur -55.4486 12.9596 -29.785
ltibia 55.2369
lfoot -13.1909 12.3902
ltoes -5.54281
1547
root 9.85227 15.1159 -18.2063 198.662 -50.9364 -185.421
lowerback 36.2149 0.465055 3.2654
upperback 19.3776 -2.73666 -0.705888
thorax 3.1375 -2.59446 -1.75197
lowerneck 2.40494 -2.44709 2.11963
upperneck -24.5428 -3.05683 5.90384
head -7.897 -2.81054 1.91133
rclavicle 1.21259e-014 3.46879e-014
rhumerus 51.1081 -22.3213 -35.3615
rradius 71.4122
rwrist -8.62722
rhand -34.2615 -16.1572
rfingers 7.12502
rthumb -7.43196 -46.0066
lclavicle 1.21259e-014 3.46879e-014
lhumerus -4.41097 -14.9471 67.4341
lradius 63.8945
lwrist 29.8253
lhand -18.7244 10.7654
lfingers 7.12502
lthumb 7.57115 40.6099
rfemur -50.4478 -6.81257 22.5328
rtibia 68.2852
rfoot -33.3349 -21.4815
rtoes -4.84192
lfemur -55.3838 13.0869 -29.8098
ltibia 55.2724
lfoot -13.314 12.4808
ltoes -5.5982
1548
root 9.82355 15.1194 -18.2041 198.634 -50.837 -185.333
lowerback 36.2032 0.492343 3.26131
upperback 19.3829 -2.70918 -0.739936
thorax 3.14648 -2.57966 -1.79417
lowerneck 2.39999 -2.46055 2.13316
upperneck -24.5133 -3.07483 5.89895
head -7.88618 -2.81803 1.90756
rclavicle 2.18663e-014 -4.45278e-014
rhumerus 51.1226 -22.3368 -35.3754
rradius 71.3617
rwrist -8.67959
rhand -34.4579 -16.273
rfingers 7.12502
rthumb -7.62157 -46.1157
lclavicle 2.18663e-014 -4.45278e-014
lhumerus -4.27286 -14.9112 67.3543
lradius 63.7702
lwrist 29.8543
lhand -18.854 10.7843
lfingers 7.12502
lthumb 7.44605 40.6332
rfemur -50.4066 -6.71555 22.4716
rtibia 68.2746
rfoot -33.3083 -21.5125
rtoes -5.02797
lfemur -55.353 13.1367 -29.8373
ltibia 55.3115
lfoot -13.4253 12.5521
ltoes -5.63673
1549
root 9.7936 15.1218 -18.2001 198.659 -50.8414 -185.273
lowerback 36.1531 0.454997 3.34235
upperback 19.384 -2.7289 -0.775898
thorax 3.16057 -2.5778 -1.87023
lowerneck 2.38153 -2.48137 2.17205
upperneck -24.4723 -3.10173 5.89257
head -7.86958 -2.83135 1.899
rclavicle 2.78299e-014 -1.38652e-014
rhumerus 51.1114 -22.3605 -35.3605
rradius 71.3101
rwrist -8.7291
rhand -34.6903 -16.3831
rfingers 7.12502
rthumb -7.84582 -46.2175
lclavicle 2.78299e-014 -1.38652e-014
lhumerus -4.14159 -14.8831 67.2724
lradius 63.688
lwrist 29.9
lhand -18.9761 10.8118
lfingers 7.12502
lthumb 7.32826 40.6649
rfemur -50.4061 -6.72117 22.418
rtibia 68.2812
rfoot -33.287 -21.5332
rtoes -5.20643
lfemur -55.3573 13.0802 -29.8664
ltibia 55.3508
lfoot -13.524 12.6109
ltoes -5.66702
1550
root 9.76286 15.1235 -18.1948 198.727 -50.9286 -185.242
lowerback 36.0793 0.367987 3.48617
upperback 19.3808 -2.78572 -0.813028
thorax 3.17552 -2.58659 -1.97016
lowerneck 2.34895 -2.50677 2.23624
upperneck -24.4223 -3.13434 5.88244
head -7.84803 -2.84892 1.88475
rclavicle 2.98177e-015 -5.70512e-014
rhumerus 51.082 -22.3943 -35.3254
rradius 71.255
rwrist -8.77547
rhand -34.9587 -16.5137
rfingers 7.12502
rthumb -8.10495 -46.3383
lclavicle 2.98177e-015 -5.70512e-014
lhumerus -4.01815 -14.863 67.1869
lradius 63.6518
lwrist 29.9668
lhand -19.095 10.8348
lfingers 7.12502
lthumb 7.21341 40.6918
rfemur -50.431 -6.81829 22.3687
rtibia 68.2972
rfoot -33.271 -21.5389
rtoes -5.3724
lfemur -55.3814 12.9392 -29.8985
ltibia 55.3863
lfoot -13.6158 12.658
ltoes -5.70045
